inDegrees=yes
name=ik_MT_012005D6_009-001_orientations.mot
DataType=double
version=3
OpenSimVersion=4.3-2021-08-27-4bc7ad9
endheader
time	pelvis_tilt	pelvis_list	pelvis_rotation	pelvis_tx	pelvis_ty	pelvis_tz	hip_flexion_r	hip_adduction_r	hip_rotation_r	knee_angle_r	knee_angle_r_beta	ankle_angle_r	subtalar_angle_r	mtp_angle_r	hip_flexion_l	hip_adduction_l	hip_rotation_l	knee_angle_l	knee_angle_l_beta	ankle_angle_l	subtalar_angle_l	mtp_angle_l	lumbar_extension	lumbar_bending	lumbar_rotation	arm_flex_r	arm_add_r	arm_rot_r	elbow_flex_r	pro_sup_r	wrist_flex_r	wrist_dev_r	arm_flex_l	arm_add_l	arm_rot_l	elbow_flex_l	pro_sup_l	wrist_flex_l	wrist_dev_l
12.5000000000002	181.2836545494152	1.940402592761524	177.4318179170942	0	0.9399999999999999	0	4.736314091391973	1.301966189576801	-3.86310311672171	0.01980095136893508	0.0003455917964151955	29.98931106143999	0	0	9.878406540731209	-4.543943905221003	-16.77621669291218	0.01777245173095907	0.0003101877988570012	29.99004141900567	0	0	42.09411791802821	4.991544257948391	3.794185696965412	-55.74970080221625	-6.074150314798247	-59.37941499007341	0.02042307355378869	0.005167579014212699	0	0	-29.56176631530285	7.546402079146785	-61.08714498252969	0.02952348849861934	0.005334288111325231	0	0
12.51666666666687	181.4115872157691	1.924528094657228	177.4198480318091	0	0.9399999999999999	0	4.859123329352729	1.336931327503406	-3.890667571822489	0.01983103497245301	0.000346116854347448	29.98926144168841	0	0	10.0809696215514	-4.52511506317709	-16.77062448899701	0.01757195071789811	0.0003066883960255034	29.99000474566264	0	0	42.15716501414595	5.04842256192885	3.829156153797381	-55.60919933493256	-6.084274464527575	-59.28839215289203	0.02045675237071762	0.00517368159169954	0	0	-29.40797623268466	7.560221164859296	-61.29196244428206	0.02948885804520955	0.005322036096465763	0	0
12.53333333333354	181.6662733238706	1.916426029271836	177.3914502174374	0	0.9399999999999999	0	5.071660650308383	1.268394537894846	-3.918537667881604	0.01989756474304871	0.0003472780178949395	29.98920177707518	0	0	10.39678267957272	-4.539006530060274	-16.84253843091177	0.01735451306833915	0.0003028933931229018	29.98996931470032	0	0	42.30533326330279	5.09290014800431	3.749372615009874	-55.4143866699996	-6.250128640075615	-59.16751050746914	0.02054450371722033	0.00517721947397577	0	0	-29.23369200624045	7.617997164454106	-61.62128843062092	0.02931611751679502	0.005312713782225949	0	0
12.5500000000002	181.7408944382741	1.936439305616193	177.4021053634983	0	0.9399999999999999	0	5.072468191209595	1.204822537568903	-3.97973703493342	0.01994608479561507	0.0003481248525654632	29.98914482934764	0	0	10.53467276687675	-4.551931456657764	-16.87406462188229	0.01712259877716242	0.0002988457251594391	29.98994568917526	0	0	42.32127377771064	5.161665964958555	3.785394554696617	-55.33840531581124	-6.374444725605454	-59.19542099177236	0.02064692575644463	0.005179016795731619	0	0	-29.25109514163136	7.550706339682332	-61.74830601420999	0.02897706605509026	0.005299516004849986	0	0
12.56666666666687	181.8899896276836	1.969846909815762	177.3725077085328	0	0.9399999999999999	0	5.14825245430022	1.075505605194855	-4.02088585382892	0.02010332492801997	0.0003508692105922005	29.9890796602158	0	0	10.72407855729641	-4.598851122993738	-16.95607220468257	0.01702012376963052	0.0002970571988770015	29.98992989640529	0	0	42.35270542861571	5.239329338136303	3.775394733533978	-55.17103016810065	-6.596888148223598	-59.20820332421127	0.02060987046686346	0.005182785429725667	0	0	-29.24744497189429	7.467712053473735	-61.91416588753368	0.02858149727041184	0.005282263218894454	0	0
12.58333333333354	182.2443741118437	2.042704774795087	177.2278120237472	0	0.9399999999999999	0	5.491607515442278	0.9224327297078658	-3.97349220268744	0.02042423709334609	0.0003564701844868456	29.98900983821807	0	0	11.11188430814177	-4.752780686923685	-17.14638808390273	0.01702780330421209	0.0002971912320404706	29.98992061173637	0	0	42.46228225273946	5.432040620057625	3.617745223137133	-54.86091678172943	-6.941846485630193	-59.07551091115754	0.02057602474175466	0.005183660484805452	0	0	-29.09325488967765	7.562857980324933	-62.28243345105066	0.02834574409299802	0.005265778153505261	0	0
12.60000000000021	182.3330427765599	2.149413894915989	177.2081095671907	0	0.9399999999999999	0	5.463157200816997	0.6705025841614128	-4.029961442280137	0.02075601001929555	0.0003622607144136392	29.98896167788446	0	0	11.20886863932508	-4.863239426747043	-17.19104614879797	0.01706601734519968	0.0002978581928761962	29.98992613956715	0	0	42.43964912144417	5.527177533886624	3.603046220364567	-54.72195165275272	-7.009559435861368	-59.08659870002958	0.02060328730874156	0.005187510358289544	0	0	-29.12336572059946	7.506222699383259	-62.36820604395147	0.02808317510320223	0.005246060437227824	0	0
12.61666666666687	182.4339651970272	2.254974886425424	177.067972204421	0	0.9399999999999999	0	5.460052717752883	0.5995436241853589	-3.933540862770727	0.02094448912664033	0.0003655502954080254	29.98892075847921	0	0	11.28662157816762	-4.986157428410568	-17.35016882965814	0.01723351833009778	0.0003007816365630012	29.98992811427576	0	0	42.26599407257805	5.656979088780465	3.489518004690835	-54.35516921931696	-7.247550952913852	-58.93892599431251	0.02049485409935306	0.005195642817776746	0	0	-28.96431189241585	7.579451773980508	-62.62295431361809	0.02785659855238729	0.005224726566646014	0	0
12.63333333333354	182.4825246847127	2.324906767309064	177.0450097911892	0	0.9399999999999999	0	5.423225345049836	0.5398446813752887	-3.972390564343052	0.02111213971235452	0.000368476350121635	29.98888654761869	0	0	11.30371923879787	-5.055745575523758	-17.39031564618819	0.01747079884482527	0.0003049229627958229	29.98992763695863	0	0	42.20310364595046	5.689958967011355	3.481913926020109	-54.19412765246496	-7.315546890818918	-58.90034089616496	0.02044745692983898	0.005207799750308766	0	0	-29.05140532049704	7.523845703525862	-62.64124466427997	0.02757426288594938	0.00520649487843079	0	0
12.65000000000021	182.3849213806636	2.498979831715488	176.9520316944729	0	0.9399999999999999	0	5.156097137007678	0.6584996060761783	-3.931761223063376	0.02121756251903553	0.000370316325204912	29.98888276905114	0	0	11.10560115663185	-5.299767027519195	-17.52700729070338	0.01783887899215749	0.000311347173277996	29.98992684432291	0	0	41.79498455898215	5.712791707886935	3.349415730906369	-53.76958065221253	-7.425613347182105	-58.68355285426821	0.02030508592491431	0.005224578755118539	0	0	-28.93566700645865	7.330526712346636	-62.7736023389385	0.02713119747877072	0.005194033348776341	0	0
12.66666666666688	182.4615770471669	2.530194645365568	176.916046445002	0	0.9399999999999999	0	5.104853227921389	0.6539772170545849	-3.956814604013207	0.02122678631712732	0.0003704773108511529	29.98887540636444	0	0	11.01685064762422	-5.30522314304804	-17.59114615337082	0.01839092583703529	0.00032098220834636	29.98992416890844	0	0	41.74036070818239	5.711072146297444	3.302933327580204	-53.54071927726509	-7.542853522828983	-58.61867548183618	0.02022625907454539	0.005246514675810651	0	0	-29.14588552846653	7.101600656664381	-62.69013457312527	0.02676892712253601	0.005190194879919559	0	0
12.68333333333354	182.4842663647396	2.585416179266891	176.8690031585357	0	0.9399999999999999	0	4.979086850504545	0.6932360655669402	-3.971947883148223	0.02115593338917138	0.0003692406939736434	29.98889752373543	0	0	10.85355986215233	-5.320713047270061	-17.65517967748331	0.01902208822652265	0.0003319980701576692	29.98993761847657	0	0	41.59329627592453	5.638752935615393	3.239215230219004	-53.31536749835875	-7.635529042671201	-58.48369459094514	0.0199642273734509	0.005276012418886455	0	0	-29.3521084013308	6.685502580927851	-62.54354089064307	0.02620349616765507	0.005186481035713851	0	0
12.70000000000021	182.1773181447128	2.706451361239892	176.8553233094413	0	0.9399999999999999	0	4.32025636322602	0.6310385844313818	-4.022069325668835	0.02066258848362494	0.0003606302010239176	29.98894981486305	0	0	10.27007502216622	-5.435829083961821	-17.63037320785592	0.01980314226299613	0.0003456300347301234	29.98994759146897	0	0	41.04611931552227	5.206215379173334	3.266119345787868	-53.02551618936767	-7.443193964593724	-58.14456004429752	0.0197490307598185	0.005306389937144764	0	0	-29.43572828870953	5.752822495555898	-62.38879839343105	0.02568173558370213	0.005193207296925917	0	0
12.71666666666688	182.2081269571829	2.653862163718054	176.7847616793087	0	0.9399999999999999	0	4.151616257820245	0.4655482125199619	-4.006157601394238	0.02043891312403387	0.0003567263295434711	29.98897041483631	0	0	10.64350805630431	-5.79662927909008	-17.39177613405079	0.02227797911703677	0.0003888240862828307	29.98978193094242	0	0	40.87135915911777	5.07603506452516	3.25147314691085	-52.90062922126817	-7.866790316455086	-58.10596575503035	0.01935650473519156	0.005340804047533519	0	0	-29.576049402783	5.212632536875573	-62.0403270080316	0.0254171276411063	0.005205235170774783	0	0
12.73333333333355	182.2399502573561	2.799966564390831	176.8726960705236	0	0.9399999999999999	0	4.021606378170319	0.5300022431505728	-4.189430151081289	0.02039999161632651	0.0003560470210841374	29.98896572042659	0	0	10.54221817958278	-6.106998020667593	-17.15072013552986	0.02436579169660065	0.0004252632899607766	29.98971041865805	0	0	40.73235470868401	4.69060698132619	3.19213523874078	-52.87190820180128	-8.043710560230073	-58.03756268339397	0.01893803235713546	0.005380118012474306	0	0	-29.66478835094757	4.33053122569881	-61.61101479750484	0.02521419264147398	0.005219577487298888	0	0
